PathFileType	3	(X/Y/Z)	D:\minhoCalibration\240510\subject2_KPNP\preferred\preferred05.trc
DataRate	CameraRate	NumFrames	NumMarkers	Units	OrigDataRate	OrigDataStartFrame	OrigNumFrames
200.0	200.0	15	10	mm	200.0	807	244	
Frame#	Time	Left_Ankle_Outer1			Left_Ankle_Inner1			Left_Knee_Outer1			Left_Knee_Inner1			Left_Wrist1			Right_Wrist1			Right_Knee_Inner1			Right_Knee_Outer1			Right_Ankle_Inner1			Right_Ankle_Outer1			
		X1	Y1	Z1	X2	Y2	Z2	X3	Y3	Z3	X4	Y4	Z4	X5	Y5	Z5	X6	Y6	Z6	X7	Y7	Z7	X8	Y8	Z8	X9	Y9	Z9	X10	Y10	Z10	
807	4.025	-555.74426	85.785385	-778.67682	-577.95782	88.915848	-722.46014	-364.01059	502.23798	-718.24115	-447.47092	485.85449	-653.14398	-476.36209	919.74597	-842.09058	-794.57776	958.87561	-954.08887	-819.07147	454.55551	-994.78516	-874.72711	498.18768	-1053.6683	-801.28339	97.343918	-1181.2015	-869.50714	127.81319	-1246.3253
808	4.03	-556.76099	85.577744	-779.33002	-578.88196	88.802528	-723.48248	-362.5784	500.05658	-716.81055	-447.62411	482.06693	-655.06555	-473.76105	919.16229	-840.25079	-793.36761	959.22742	-950.31616	-821.72522	454.08313	-988.41968	-876.85242	498.6731	-1047.2986	-802.36926	98.824066	-1180.6785	-869.86926	130.64639	-1244.4166
809	4.035	-557.09534	86.513687	-779.41815	-578.75677	89.456909	-724.34796	-360.08197	498.84222	-714.47546	-446.51071	480.78445	-653.82837	-471.02414	918.66028	-838.44885	-792.42664	959.26251	-942.85907	-824.26678	453.8425	-981.52124	-879.54169	498.90536	-1040.1064	-802.89526	101.38326	-1179.1389	-870.64581	133.33803	-1242.0376
810	4.04	-556.50537	87.221947	-779.24445	-578.27631	89.646988	-723.6723	-357.59595	498.52673	-711.72852	-444.17953	479.84821	-653.25372	-468.40747	918.47217	-836.54504	-791.18036	960.0257	-937.91498	-826.60571	453.78256	-974.46826	-882.27301	500.13309	-1032.4095	-803.55231	104.65851	-1177.3042	-871.29608	137.64052	-1240.0276
811	4.045	-554.91754	87.663147	-779.04236	-577.12939	90.098228	-723.32281	-355.45175	498.99246	-709.09619	-441.86777	480.13751	-651.17419	-465.5683	918.56396	-834.79504	-790.07544	960.63074	-929.69678	-829.72296	454.35797	-966.13202	-885.54834	501.36249	-1024.0059	-804.39935	108.29546	-1175.4523	-872.31213	142.08316	-1237.2767
812	4.05	-553.23334	88.085388	-778.95227	-575.82587	90.602562	-724.28717	-353.16177	500.00638	-707.27612	-439.24048	480.19492	-651.03265	-462.55966	918.97266	-833.03821	-788.66388	961.70947	-922.69745	-831.797	454.5498	-959.14075	-889.05518	502.8504	-1015.0517	-805.31036	112.66154	-1173.0677	-873.64703	146.89111	-1234.3462
813	4.055	-551.87885	88.592033	-779.06079	-574.69043	91.271469	-724.42468	-351.07788	501.02985	-705.99365	-436.87027	481.34424	-649.56659	-459.20374	919.71552	-831.40656	-786.94446	962.79871	-915.71698	-829.75653	449.59497	-963.93286	-892.20251	505.33365	-1006.1859	-807.02972	117.43365	-1170.5134	-875.31512	152.57318	-1230.8799
814	4.06	-550.79553	88.901588	-779.47852	-573.66974	91.745155	-724.10107	-348.92493	502.13046	-705.33649	-434.16504	483.68274	-646.9328	-455.71768	921.0647	-829.64679	-784.88348	964.20898	-906.82605	-838.1156	456.3605	-940.68976	-896.37262	507.86752	-995.93463	-808.69849	122.86676	-1167.3622	-877.55066	158.46477	-1226.9144
815	4.065	-549.81934	89.084152	-780.22607	-572.91473	92.100548	-725.86084	-347.01135	502.63083	-705.23944	-431.17249	484.87103	-646.24646	-451.84091	922.63422	-828.05945	-782.09534	966.11786	-900.90033	-841.37292	457.78662	-930.77478	-901.17316	510.46671	-984.19	-810.73907	129.0097	-1163.6937	-879.74988	165.56786	-1222.3291
816	4.07	-548.88757	88.90139	-781.27136	-572.31763	92.262848	-726.09027	-345.32565	502.76648	-705.56415	-428.03903	485.70923	-645.698	-447.14935	924.74658	-826.20972	-779.297	967.98718	-891.36139	-846.47046	461.18588	-919.39435	-905.26099	514.19019	-972.54095	-813.22504	135.66757	-1159.2941	-882.85211	172.91681	-1216.9238
817	4.075	-548.20892	88.566902	-782.23706	-571.84967	92.290314	-728.09674	-343.74319	502.40771	-706.30115	-424.92551	485.89642	-645.55005	-443.09586	926.98761	-824.56287	-776.09399	969.9447	-884.07135	-850.88434	463.7114	-907.3678	-909.89948	517.61182	-959.224	-816.21191	142.75171	-1154.2377	-886.38354	180.64154	-1210.5627
818	4.08	-547.8725	88.337944	-782.97571	-571.55444	92.227959	-728.14301	-341.98627	501.76114	-707.45569	-422.12894	485.35809	-645.69794	-438.44229	929.41681	-822.96521	-772.55963	972.28497	-874.80109	-855.24365	466.5014	-894.06708	-914.65247	520.88971	-945.28198	-819.60291	150.20059	-1148.3281	-890.48846	188.72739	-1203.3854
819	4.085	-547.62402	88.151611	-783.55878	-571.29926	92.211655	-728.88757	-340.33591	500.61572	-708.82306	-419.80261	484.28339	-646.15924	-433.63522	931.94635	-821.86438	-768.81531	974.88586	-867.27612	-858.67975	469.12943	-879.34778	-918.41284	525.01697	-930.8559	-823.43427	158.01216	-1141.6855	-894.87671	197.45151	-1195.335
820	4.09	-546.83807	88.519051	-784.41071	-571.08844	92.422928	-730.05371	-338.7818	499.32562	-710.33246	-417.77942	482.97415	-646.94196	-428.09772	934.62415	-820.19763	-765.03003	977.25958	-859.38611	-862.89539	472.91898	-865.52734	-921.79669	529.12506	-915.64337	-827.50354	166.17961	-1134.5529	-899.42725	206.5719	-1186.7433
821	4.095	-546.71002	88.38765	-784.50592	-570.76105	92.483864	-730.30475	-337.26868	497.961	-711.74316	-416.06796	481.65973	-647.8891	-424.10416	937.09985	-820.15106	-761.02747	979.97717	-850.33826	-866.3067	476.62079	-850.25024	-924.39685	533.61853	-900.24756	-831.81812	174.70627	-1126.6282	-904.08813	216.40424	-1177.3768
